# xmcd
#
# Track frame offsets:
#	150
#	30448
#	56944
#	82409
#	114788
#	140584
#	174358
#	204308
#
# Disc length: 2943 seconds
#
# Revision: 0
# Processed by: cddbd v1.5.2PL0 Copyright (c) Steve Scherf et al.
# Submitted via: audiograbber 1.83.01
#
DISCID=690b7d08
DTITLE=Grateful Dead - 93-12-09 Los Angeles Sports Arena, Los Angeles CA
DYEAR=1900
DGENRE=
TTITLE0=Touch Of Grey
TTITLE1=Wang Dang Doodle
TTITLE2=Peggy-O
TTITLE3=Queen Jane Approximately
TTITLE4=Broken Arrow
TTITLE5=Loose Lucy
TTITLE6=Easy Answers
TTITLE7=Don't Ease Me In
EXTD=
EXTT0=
EXTT1=
EXTT2=
EXTT3=
EXTT4=
EXTT5=
EXTT6=
EXTT7=
PLAYORDER=
